<svg width="541" height="175" viewBox="0 0 541 175" fill="none" xmlns="http://www.w3.org/2000/svg">
<rect x="154" y="98.6235" width="344" height="15" rx="7.5" fill="#FFE37E" fill-opacity="0.8"/>
<rect x="154" y="38.6235" width="305" height="15" rx="7.5" fill="#318CE7" fill-opacity="0.4"/>
<rect x="231" y="158.624" width="177" height="15" rx="7.5" fill="#7ED6A7" fill-opacity="0.8"/>
<path d="M39.84 14.1195V47.6235H33.12V25.8315L24.144 47.6235H19.056L10.032 25.8315V47.6235H3.312V14.1195H10.944L21.6 39.0315L32.256 14.1195H39.84ZM49.8919 17.8635C48.7079 17.8635 47.7159 17.4955 46.9159 16.7595C46.1479 15.9915 45.7639 15.0475 45.7639 13.9275C45.7639 12.8075 46.1479 11.8795 46.9159 11.1435C47.7159 10.3755 48.7079 9.99153 49.8919 9.99153C51.0759 9.99153 52.0519 10.3755 52.8199 11.1435C53.6199 11.8795 54.0199 12.8075 54.0199 13.9275C54.0199 15.0475 53.6199 15.9915 52.8199 16.7595C52.0519 17.4955 51.0759 17.8635 49.8919 17.8635ZM53.2039 21.0315V47.6235H46.4839V21.0315H53.2039ZM84.5633 33.7515C84.5633 34.7115 84.4993 35.5755 84.3713 36.3435H64.9313C65.0913 38.2635 65.7633 39.7675 66.9473 40.8555C68.1313 41.9435 69.5873 42.4875 71.3153 42.4875C73.8113 42.4875 75.5873 41.4155 76.6433 39.2715H83.8913C83.1233 41.8315 81.6513 43.9435 79.4753 45.6075C77.2993 47.2395 74.6273 48.0555 71.4593 48.0555C68.8993 48.0555 66.5953 47.4955 64.5473 46.3755C62.5313 45.2235 60.9473 43.6075 59.7953 41.5275C58.6753 39.4475 58.1152 37.0475 58.1152 34.3275C58.1152 31.5755 58.6753 29.1595 59.7953 27.0795C60.9153 24.9995 62.4833 23.3995 64.4993 22.2795C66.5153 21.1595 68.8353 20.5995 71.4593 20.5995C73.9873 20.5995 76.2433 21.1435 78.2273 22.2315C80.2433 23.3195 81.7953 24.8715 82.8833 26.8875C84.0033 28.8715 84.5633 31.1595 84.5633 33.7515ZM77.6033 31.8315C77.5713 30.1035 76.9473 28.7275 75.7313 27.7035C74.5153 26.6475 73.0273 26.1195 71.2673 26.1195C69.6033 26.1195 68.1953 26.6315 67.0433 27.6555C65.9233 28.6475 65.2353 30.0395 64.9793 31.8315H77.6033ZM114.572 21.0315V47.6235H107.804V44.2635C106.94 45.4155 105.804 46.3275 104.396 46.9995C103.02 47.6395 101.516 47.9595 99.8843 47.9595C97.8043 47.9595 95.9643 47.5275 94.3643 46.6635C92.7643 45.7675 91.5003 44.4715 90.5723 42.7755C89.6763 41.0475 89.2283 38.9995 89.2283 36.6315V21.0315H95.9483V35.6715C95.9483 37.7835 96.4763 39.4155 97.5323 40.5675C98.5883 41.6875 100.028 42.2475 101.852 42.2475C103.708 42.2475 105.164 41.6875 106.22 40.5675C107.276 39.4155 107.804 37.7835 107.804 35.6715V21.0315H114.572ZM135.891 47.6235L130.419 39.3675L125.571 47.6235H118.371L127.059 34.2795L118.275 21.0315H125.859L131.283 29.2395L136.179 21.0315H143.379L134.643 34.2795L143.475 47.6235H135.891ZM156.834 34.3275C156.834 31.5755 157.394 29.1755 158.514 27.1275C159.634 25.0475 161.186 23.4475 163.17 22.3275C165.154 21.1755 167.426 20.5995 169.986 20.5995C173.282 20.5995 176.002 21.4315 178.146 23.0955C180.322 24.7275 181.778 27.0315 182.514 30.0075H175.266C174.882 28.8555 174.226 27.9595 173.298 27.3195C172.402 26.6475 171.282 26.3115 169.938 26.3115C168.018 26.3115 166.498 27.0155 165.378 28.4235C164.258 29.7995 163.698 31.7675 163.698 34.3275C163.698 36.8555 164.258 38.8235 165.378 40.2315C166.498 41.6075 168.018 42.2955 169.938 42.2955C172.658 42.2955 174.434 41.0795 175.266 38.6475H182.514C181.778 41.5275 180.322 43.8155 178.146 45.5115C175.97 47.2075 173.25 48.0555 169.986 48.0555C167.426 48.0555 165.154 47.4955 163.17 46.3755C161.186 45.2235 159.634 43.6235 158.514 41.5755C157.394 39.4955 156.834 37.0795 156.834 34.3275ZM199.245 48.0555C196.685 48.0555 194.381 47.4955 192.333 46.3755C190.285 45.2235 188.669 43.6075 187.485 41.5275C186.333 39.4475 185.757 37.0475 185.757 34.3275C185.757 31.6075 186.349 29.2075 187.533 27.1275C188.749 25.0475 190.397 23.4475 192.477 22.3275C194.557 21.1755 196.877 20.5995 199.437 20.5995C201.997 20.5995 204.317 21.1755 206.397 22.3275C208.477 23.4475 210.109 25.0475 211.293 27.1275C212.509 29.2075 213.117 31.6075 213.117 34.3275C213.117 37.0475 212.493 39.4475 211.245 41.5275C210.029 43.6075 208.365 45.2235 206.253 46.3755C204.173 47.4955 201.837 48.0555 199.245 48.0555ZM199.245 42.1995C200.461 42.1995 201.597 41.9115 202.653 41.3355C203.741 40.7275 204.605 39.8315 205.245 38.6475C205.885 37.4635 206.205 36.0235 206.205 34.3275C206.205 31.7995 205.533 29.8635 204.189 28.5195C202.877 27.1435 201.261 26.4555 199.341 26.4555C197.421 26.4555 195.805 27.1435 194.493 28.5195C193.213 29.8635 192.573 31.7995 192.573 34.3275C192.573 36.8555 193.197 38.8075 194.445 40.1835C195.725 41.5275 197.325 42.1995 199.245 42.1995ZM251.07 20.6475C254.334 20.6475 256.958 21.6555 258.942 23.6715C260.958 25.6555 261.966 28.4395 261.966 32.0235V47.6235H255.246V32.9355C255.246 30.8555 254.718 29.2715 253.662 28.1835C252.606 27.0635 251.166 26.5035 249.342 26.5035C247.518 26.5035 246.062 27.0635 244.974 28.1835C243.918 29.2715 243.39 30.8555 243.39 32.9355V47.6235H236.67V32.9355C236.67 30.8555 236.142 29.2715 235.086 28.1835C234.03 27.0635 232.59 26.5035 230.766 26.5035C228.91 26.5035 227.438 27.0635 226.35 28.1835C225.294 29.2715 224.766 30.8555 224.766 32.9355V47.6235H218.046V21.0315H224.766V24.2475C225.63 23.1275 226.734 22.2475 228.078 21.6075C229.454 20.9675 230.958 20.6475 232.59 20.6475C234.67 20.6475 236.526 21.0955 238.158 21.9915C239.79 22.8555 241.054 24.1035 241.95 25.7355C242.814 24.1995 244.062 22.9675 245.694 22.0395C247.358 21.1115 249.15 20.6475 251.07 20.6475ZM275.063 24.8715C275.927 23.6555 277.111 22.6475 278.615 21.8475C280.151 21.0155 281.895 20.5995 283.847 20.5995C286.119 20.5995 288.167 21.1595 289.991 22.2795C291.847 23.3995 293.303 24.9995 294.359 27.0795C295.447 29.1275 295.991 31.5115 295.991 34.2315C295.991 36.9515 295.447 39.3675 294.359 41.4795C293.303 43.5595 291.847 45.1755 289.991 46.3275C288.167 47.4795 286.119 48.0555 283.847 48.0555C281.895 48.0555 280.167 47.6555 278.663 46.8555C277.191 46.0555 275.991 45.0475 275.063 43.8315V60.2955H268.343V21.0315H275.063V24.8715ZM289.127 34.2315C289.127 32.6315 288.791 31.2555 288.119 30.1035C287.479 28.9195 286.615 28.0235 285.527 27.4155C284.471 26.8075 283.319 26.5035 282.071 26.5035C280.855 26.5035 279.703 26.8235 278.615 27.4635C277.559 28.0715 276.695 28.9675 276.023 30.1515C275.383 31.3355 275.063 32.7275 275.063 34.3275C275.063 35.9275 275.383 37.3195 276.023 38.5035C276.695 39.6875 277.559 40.5995 278.615 41.2395C279.703 41.8475 280.855 42.1515 282.071 42.1515C283.319 42.1515 284.471 41.8315 285.527 41.1915C286.615 40.5515 287.479 39.6395 288.119 38.4555C288.791 37.2715 289.127 35.8635 289.127 34.2315ZM307.595 25.1595C308.459 23.7515 309.579 22.6475 310.955 21.8475C312.363 21.0475 313.963 20.6475 315.755 20.6475V27.7035H313.979C311.867 27.7035 310.267 28.1995 309.179 29.1915C308.123 30.1835 307.595 31.9115 307.595 34.3755V47.6235H300.875V21.0315H307.595V25.1595ZM345.001 33.7515C345.001 34.7115 344.937 35.5755 344.809 36.3435H325.369C325.529 38.2635 326.201 39.7675 327.385 40.8555C328.569 41.9435 330.025 42.4875 331.753 42.4875C334.249 42.4875 336.025 41.4155 337.081 39.2715H344.329C343.561 41.8315 342.089 43.9435 339.913 45.6075C337.737 47.2395 335.065 48.0555 331.897 48.0555C329.337 48.0555 327.033 47.4955 324.985 46.3755C322.969 45.2235 321.385 43.6075 320.233 41.5275C319.113 39.4475 318.553 37.0475 318.553 34.3275C318.553 31.5755 319.113 29.1595 320.233 27.0795C321.353 24.9995 322.921 23.3995 324.937 22.2795C326.953 21.1595 329.273 20.5995 331.897 20.5995C334.425 20.5995 336.681 21.1435 338.665 22.2315C340.681 23.3195 342.233 24.8715 343.321 26.8875C344.441 28.8715 345.001 31.1595 345.001 33.7515ZM338.041 31.8315C338.009 30.1035 337.385 28.7275 336.169 27.7035C334.953 26.6475 333.465 26.1195 331.705 26.1195C330.041 26.1195 328.633 26.6315 327.481 27.6555C326.361 28.6475 325.673 30.0395 325.417 31.8315H338.041ZM364.642 20.6475C367.81 20.6475 370.37 21.6555 372.322 23.6715C374.274 25.6555 375.25 28.4395 375.25 32.0235V47.6235H368.53V32.9355C368.53 30.8235 368.002 29.2075 366.946 28.0875C365.89 26.9355 364.45 26.3595 362.626 26.3595C360.77 26.3595 359.298 26.9355 358.21 28.0875C357.154 29.2075 356.626 30.8235 356.626 32.9355V47.6235H349.906V21.0315H356.626V24.3435C357.522 23.1915 358.658 22.2955 360.034 21.6555C361.442 20.9835 362.978 20.6475 364.642 20.6475ZM379.912 34.2315C379.912 31.5435 380.44 29.1595 381.496 27.0795C382.584 24.9995 384.056 23.3995 385.912 22.2795C387.768 21.1595 389.832 20.5995 392.104 20.5995C393.832 20.5995 395.48 20.9835 397.048 21.7515C398.616 22.4875 399.864 23.4795 400.792 24.7275V12.1035H407.608V47.6235H400.792V43.6875C399.96 44.9995 398.792 46.0555 397.288 46.8555C395.784 47.6555 394.04 48.0555 392.056 48.0555C389.816 48.0555 387.768 47.4795 385.912 46.3275C384.056 45.1755 382.584 43.5595 381.496 41.4795C380.44 39.3675 379.912 36.9515 379.912 34.2315ZM400.84 34.3275C400.84 32.6955 400.52 31.3035 399.88 30.1515C399.24 28.9675 398.376 28.0715 397.288 27.4635C396.2 26.8235 395.032 26.5035 393.784 26.5035C392.536 26.5035 391.384 26.8075 390.328 27.4155C389.272 28.0235 388.408 28.9195 387.736 30.1035C387.096 31.2555 386.776 32.6315 386.776 34.2315C386.776 35.8315 387.096 37.2395 387.736 38.4555C388.408 39.6395 389.272 40.5515 390.328 41.1915C391.416 41.8315 392.568 42.1515 393.784 42.1515C395.032 42.1515 396.2 41.8475 397.288 41.2395C398.376 40.5995 399.24 39.7035 399.88 38.5515C400.52 37.3675 400.84 35.9595 400.84 34.3275ZM420.891 25.1595C421.755 23.7515 422.875 22.6475 424.251 21.8475C425.659 21.0475 427.259 20.6475 429.051 20.6475V27.7035H427.275C425.163 27.7035 423.563 28.1995 422.475 29.1915C421.419 30.1835 420.891 31.9115 420.891 34.3755V47.6235H414.171V21.0315H420.891V25.1595ZM458.298 33.7515C458.298 34.7115 458.234 35.5755 458.106 36.3435H438.666C438.826 38.2635 439.498 39.7675 440.682 40.8555C441.866 41.9435 443.322 42.4875 445.05 42.4875C447.546 42.4875 449.322 41.4155 450.378 39.2715H457.626C456.858 41.8315 455.386 43.9435 453.21 45.6075C451.034 47.2395 448.362 48.0555 445.194 48.0555C442.634 48.0555 440.33 47.4955 438.282 46.3755C436.266 45.2235 434.682 43.6075 433.53 41.5275C432.41 39.4475 431.85 37.0475 431.85 34.3275C431.85 31.5755 432.41 29.1595 433.53 27.0795C434.65 24.9995 436.218 23.3995 438.234 22.2795C440.25 21.1595 442.57 20.5995 445.194 20.5995C447.722 20.5995 449.978 21.1435 451.962 22.2315C453.978 23.3195 455.53 24.8715 456.618 26.8875C457.738 28.8715 458.298 31.1595 458.298 33.7515ZM451.338 31.8315C451.306 30.1035 450.682 28.7275 449.466 27.7035C448.25 26.6475 446.762 26.1195 445.002 26.1195C443.338 26.1195 441.93 26.6315 440.778 27.6555C439.658 28.6475 438.97 30.0395 438.714 31.8315H451.338ZM466.179 47.9595C464.963 47.9595 463.955 47.5915 463.155 46.8555C462.387 46.0875 462.003 45.1435 462.003 44.0235C462.003 42.9035 462.387 41.9755 463.155 41.2395C463.955 40.4715 464.963 40.0875 466.179 40.0875C467.363 40.0875 468.339 40.4715 469.107 41.2395C469.875 41.9755 470.259 42.9035 470.259 44.0235C470.259 45.1435 469.875 46.0875 469.107 46.8555C468.339 47.5915 467.363 47.9595 466.179 47.9595ZM39.84 74.1195V107.624H33.12V85.8315L24.144 107.624H19.056L10.032 85.8315V107.624H3.312V74.1195H10.944L21.6 99.0315L32.256 74.1195H39.84ZM49.8919 77.8635C48.7079 77.8635 47.7159 77.4955 46.9159 76.7595C46.1479 75.9915 45.7639 75.0475 45.7639 73.9275C45.7639 72.8075 46.1479 71.8795 46.9159 71.1435C47.7159 70.3755 48.7079 69.9915 49.8919 69.9915C51.0759 69.9915 52.0519 70.3755 52.8199 71.1435C53.6199 71.8795 54.0199 72.8075 54.0199 73.9275C54.0199 75.0475 53.6199 75.9915 52.8199 76.7595C52.0519 77.4955 51.0759 77.8635 49.8919 77.8635ZM53.2039 81.0315V107.624H46.4839V81.0315H53.2039ZM84.5633 93.7515C84.5633 94.7115 84.4993 95.5755 84.3713 96.3435H64.9313C65.0913 98.2635 65.7633 99.7675 66.9473 100.856C68.1313 101.944 69.5873 102.488 71.3153 102.488C73.8113 102.488 75.5873 101.416 76.6433 99.2715H83.8913C83.1233 101.832 81.6513 103.944 79.4753 105.608C77.2993 107.24 74.6273 108.056 71.4593 108.056C68.8993 108.056 66.5953 107.496 64.5473 106.376C62.5313 105.224 60.9473 103.608 59.7953 101.528C58.6753 99.4475 58.1152 97.0475 58.1152 94.3275C58.1152 91.5755 58.6753 89.1595 59.7953 87.0795C60.9153 84.9995 62.4833 83.3995 64.4993 82.2795C66.5153 81.1595 68.8353 80.5995 71.4593 80.5995C73.9873 80.5995 76.2433 81.1435 78.2273 82.2315C80.2433 83.3195 81.7953 84.8715 82.8833 86.8875C84.0033 88.8715 84.5633 91.1595 84.5633 93.7515ZM77.6033 91.8315C77.5713 90.1035 76.9473 88.7275 75.7313 87.7035C74.5153 86.6475 73.0273 86.1195 71.2673 86.1195C69.6033 86.1195 68.1953 86.6315 67.0433 87.6555C65.9233 88.6475 65.2353 90.0395 64.9793 91.8315H77.6033ZM114.572 81.0315V107.624H107.804V104.264C106.94 105.416 105.804 106.328 104.396 107C103.02 107.64 101.516 107.96 99.8843 107.96C97.8043 107.96 95.9643 107.528 94.3643 106.664C92.7643 105.768 91.5003 104.472 90.5723 102.776C89.6763 101.048 89.2283 98.9995 89.2283 96.6315V81.0315H95.9483V95.6715C95.9483 97.7835 96.4763 99.4155 97.5323 100.568C98.5883 101.688 100.028 102.248 101.852 102.248C103.708 102.248 105.164 101.688 106.22 100.568C107.276 99.4155 107.804 97.7835 107.804 95.6715V81.0315H114.572ZM135.891 107.624L130.419 99.3675L125.571 107.624H118.371L127.059 94.2795L118.275 81.0315H125.859L131.283 89.2395L136.179 81.0315H143.379L134.643 94.2795L143.475 107.624H135.891ZM156.834 94.2315C156.834 91.5435 157.362 89.1595 158.418 87.0795C159.506 84.9995 160.962 83.3995 162.786 82.2795C164.642 81.1595 166.706 80.5995 168.978 80.5995C170.962 80.5995 172.69 80.9995 174.162 81.7995C175.666 82.5995 176.866 83.6075 177.762 84.8235V81.0315H184.53V107.624H177.762V103.736C176.898 104.984 175.698 106.024 174.162 106.856C172.658 107.656 170.914 108.056 168.93 108.056C166.69 108.056 164.642 107.48 162.786 106.328C160.962 105.176 159.506 103.56 158.418 101.48C157.362 99.3675 156.834 96.9515 156.834 94.2315ZM177.762 94.3275C177.762 92.6955 177.442 91.3035 176.802 90.1515C176.162 88.9675 175.298 88.0715 174.21 87.4635C173.122 86.8235 171.954 86.5035 170.706 86.5035C169.458 86.5035 168.306 86.8075 167.25 87.4155C166.194 88.0235 165.33 88.9195 164.658 90.1035C164.018 91.2555 163.698 92.6315 163.698 94.2315C163.698 95.8315 164.018 97.2395 164.658 98.4555C165.33 99.6395 166.194 100.552 167.25 101.192C168.338 101.832 169.49 102.152 170.706 102.152C171.954 102.152 173.122 101.848 174.21 101.24C175.298 100.6 176.162 99.7035 176.802 98.5515C177.442 97.3675 177.762 95.9595 177.762 94.3275ZM189.365 94.3275C189.365 91.5755 189.925 89.1755 191.045 87.1275C192.165 85.0475 193.717 83.4475 195.701 82.3275C197.685 81.1755 199.957 80.5995 202.517 80.5995C205.813 80.5995 208.533 81.4315 210.677 83.0955C212.853 84.7275 214.309 87.0315 215.045 90.0075H207.797C207.413 88.8555 206.757 87.9595 205.829 87.3195C204.933 86.6475 203.813 86.3115 202.469 86.3115C200.549 86.3115 199.029 87.0155 197.909 88.4235C196.789 89.7995 196.229 91.7675 196.229 94.3275C196.229 96.8555 196.789 98.8235 197.909 100.232C199.029 101.608 200.549 102.296 202.469 102.296C205.189 102.296 206.965 101.08 207.797 98.6475H215.045C214.309 101.528 212.853 103.816 210.677 105.512C208.501 107.208 205.781 108.056 202.517 108.056C199.957 108.056 197.685 107.496 195.701 106.376C193.717 105.224 192.165 103.624 191.045 101.576C189.925 99.4955 189.365 97.0795 189.365 94.3275ZM218.24 94.3275C218.24 91.5755 218.8 89.1755 219.92 87.1275C221.04 85.0475 222.592 83.4475 224.576 82.3275C226.56 81.1755 228.832 80.5995 231.392 80.5995C234.688 80.5995 237.408 81.4315 239.552 83.0955C241.728 84.7275 243.184 87.0315 243.92 90.0075H236.672C236.288 88.8555 235.632 87.9595 234.704 87.3195C233.808 86.6475 232.688 86.3115 231.344 86.3115C229.424 86.3115 227.904 87.0155 226.784 88.4235C225.664 89.7995 225.104 91.7675 225.104 94.3275C225.104 96.8555 225.664 98.8235 226.784 100.232C227.904 101.608 229.424 102.296 231.344 102.296C234.064 102.296 235.84 101.08 236.672 98.6475H243.92C243.184 101.528 241.728 103.816 239.552 105.512C237.376 107.208 234.656 108.056 231.392 108.056C228.832 108.056 226.56 107.496 224.576 106.376C222.592 105.224 221.04 103.624 219.92 101.576C218.8 99.4955 218.24 97.0795 218.24 94.3275ZM260.651 108.056C258.091 108.056 255.787 107.496 253.739 106.376C251.691 105.224 250.075 103.608 248.891 101.528C247.739 99.4475 247.163 97.0475 247.163 94.3275C247.163 91.6075 247.755 89.2075 248.939 87.1275C250.155 85.0475 251.803 83.4475 253.883 82.3275C255.963 81.1755 258.283 80.5995 260.843 80.5995C263.403 80.5995 265.723 81.1755 267.803 82.3275C269.883 83.4475 271.515 85.0475 272.699 87.1275C273.915 89.2075 274.523 91.6075 274.523 94.3275C274.523 97.0475 273.899 99.4475 272.651 101.528C271.435 103.608 269.771 105.224 267.659 106.376C265.579 107.496 263.243 108.056 260.651 108.056ZM260.651 102.2C261.867 102.2 263.003 101.912 264.059 101.336C265.147 100.728 266.011 99.8315 266.651 98.6475C267.291 97.4635 267.611 96.0235 267.611 94.3275C267.611 91.7995 266.939 89.8635 265.595 88.5195C264.283 87.1435 262.667 86.4555 260.747 86.4555C258.827 86.4555 257.211 87.1435 255.899 88.5195C254.619 89.8635 253.979 91.7995 253.979 94.3275C253.979 96.8555 254.603 98.8075 255.851 100.184C257.131 101.528 258.731 102.2 260.651 102.2ZM312.477 80.6475C315.741 80.6475 318.365 81.6555 320.349 83.6715C322.365 85.6555 323.373 88.4395 323.373 92.0235V107.624H316.653V92.9355C316.653 90.8555 316.125 89.2715 315.069 88.1835C314.013 87.0635 312.573 86.5035 310.749 86.5035C308.925 86.5035 307.469 87.0635 306.381 88.1835C305.325 89.2715 304.797 90.8555 304.797 92.9355V107.624H298.077V92.9355C298.077 90.8555 297.549 89.2715 296.493 88.1835C295.437 87.0635 293.997 86.5035 292.173 86.5035C290.317 86.5035 288.845 87.0635 287.757 88.1835C286.701 89.2715 286.173 90.8555 286.173 92.9355V107.624H279.453V81.0315H286.173V84.2475C287.037 83.1275 288.141 82.2475 289.485 81.6075C290.861 80.9675 292.365 80.6475 293.997 80.6475C296.077 80.6475 297.933 81.0955 299.565 81.9915C301.197 82.8555 302.461 84.1035 303.357 85.7355C304.221 84.1995 305.469 82.9675 307.101 82.0395C308.765 81.1115 310.557 80.6475 312.477 80.6475ZM336.47 84.8715C337.334 83.6555 338.518 82.6475 340.022 81.8475C341.558 81.0155 343.302 80.5995 345.254 80.5995C347.526 80.5995 349.574 81.1595 351.398 82.2795C353.254 83.3995 354.71 84.9995 355.766 87.0795C356.854 89.1275 357.398 91.5115 357.398 94.2315C357.398 96.9515 356.854 99.3675 355.766 101.48C354.71 103.56 353.254 105.176 351.398 106.328C349.574 107.48 347.526 108.056 345.254 108.056C343.302 108.056 341.574 107.656 340.07 106.856C338.598 106.056 337.398 105.048 336.47 103.832V120.296H329.75V81.0315H336.47V84.8715ZM350.534 94.2315C350.534 92.6315 350.198 91.2555 349.526 90.1035C348.886 88.9195 348.022 88.0235 346.934 87.4155C345.878 86.8075 344.726 86.5035 343.478 86.5035C342.262 86.5035 341.11 86.8235 340.022 87.4635C338.966 88.0715 338.102 88.9675 337.43 90.1515C336.79 91.3355 336.47 92.7275 336.47 94.3275C336.47 95.9275 336.79 97.3195 337.43 98.5035C338.102 99.6875 338.966 100.6 340.022 101.24C341.11 101.848 342.262 102.152 343.478 102.152C344.726 102.152 345.878 101.832 346.934 101.192C348.022 100.552 348.886 99.6395 349.526 98.4555C350.198 97.2715 350.534 95.8635 350.534 94.2315ZM360.553 94.2315C360.553 91.5435 361.081 89.1595 362.137 87.0795C363.225 84.9995 364.681 83.3995 366.505 82.2795C368.361 81.1595 370.425 80.5995 372.697 80.5995C374.681 80.5995 376.409 80.9995 377.881 81.7995C379.385 82.5995 380.585 83.6075 381.481 84.8235V81.0315H388.249V107.624H381.481V103.736C380.617 104.984 379.417 106.024 377.881 106.856C376.377 107.656 374.633 108.056 372.649 108.056C370.409 108.056 368.361 107.48 366.505 106.328C364.681 105.176 363.225 103.56 362.137 101.48C361.081 99.3675 360.553 96.9515 360.553 94.2315ZM381.481 94.3275C381.481 92.6955 381.161 91.3035 380.521 90.1515C379.881 88.9675 379.017 88.0715 377.929 87.4635C376.841 86.8235 375.673 86.5035 374.425 86.5035C373.177 86.5035 372.025 86.8075 370.969 87.4155C369.913 88.0235 369.049 88.9195 368.377 90.1035C367.737 91.2555 367.417 92.6315 367.417 94.2315C367.417 95.8315 367.737 97.2395 368.377 98.4555C369.049 99.6395 369.913 100.552 370.969 101.192C372.057 101.832 373.209 102.152 374.425 102.152C375.673 102.152 376.841 101.848 377.929 101.24C379.017 100.6 379.881 99.7035 380.521 98.5515C381.161 97.3675 381.481 95.9595 381.481 94.3275ZM405.228 80.5995C407.212 80.5995 408.956 80.9995 410.46 81.7995C411.964 82.5675 413.148 83.5755 414.012 84.8235V81.0315H420.78V107.816C420.78 110.28 420.284 112.472 419.292 114.392C418.3 116.344 416.812 117.88 414.828 119C412.844 120.152 410.444 120.728 407.628 120.728C403.852 120.728 400.748 119.848 398.316 118.088C395.916 116.328 394.556 113.928 394.236 110.888H400.908C401.26 112.104 402.012 113.064 403.164 113.768C404.348 114.504 405.772 114.872 407.436 114.872C409.388 114.872 410.972 114.28 412.188 113.096C413.404 111.944 414.012 110.184 414.012 107.816V103.688C413.148 104.936 411.948 105.976 410.412 106.808C408.908 107.64 407.18 108.056 405.228 108.056C402.988 108.056 400.94 107.48 399.084 106.328C397.228 105.176 395.756 103.56 394.668 101.48C393.612 99.3675 393.084 96.9515 393.084 94.2315C393.084 91.5435 393.612 89.1595 394.668 87.0795C395.756 84.9995 397.212 83.3995 399.036 82.2795C400.892 81.1595 402.956 80.5995 405.228 80.5995ZM414.012 94.3275C414.012 92.6955 413.692 91.3035 413.052 90.1515C412.412 88.9675 411.548 88.0715 410.46 87.4635C409.372 86.8235 408.204 86.5035 406.956 86.5035C405.708 86.5035 404.556 86.8075 403.5 87.4155C402.444 88.0235 401.58 88.9195 400.908 90.1035C400.268 91.2555 399.948 92.6315 399.948 94.2315C399.948 95.8315 400.268 97.2395 400.908 98.4555C401.58 99.6395 402.444 100.552 403.5 101.192C404.588 101.832 405.74 102.152 406.956 102.152C408.204 102.152 409.372 101.848 410.46 101.24C411.548 100.6 412.412 99.7035 413.052 98.5515C413.692 97.3675 414.012 95.9595 414.012 94.3275ZM442.079 80.6475C445.247 80.6475 447.807 81.6555 449.759 83.6715C451.711 85.6555 452.687 88.4395 452.687 92.0235V107.624H445.967V92.9355C445.967 90.8235 445.439 89.2075 444.383 88.0875C443.327 86.9355 441.887 86.3595 440.063 86.3595C438.207 86.3595 436.735 86.9355 435.647 88.0875C434.591 89.2075 434.063 90.8235 434.063 92.9355V107.624H427.343V81.0315H434.063V84.3435C434.959 83.1915 436.095 82.2955 437.471 81.6555C438.879 80.9835 440.415 80.6475 442.079 80.6475ZM483.798 93.7515C483.798 94.7115 483.734 95.5755 483.606 96.3435H464.166C464.326 98.2635 464.998 99.7675 466.182 100.856C467.366 101.944 468.822 102.488 470.55 102.488C473.046 102.488 474.822 101.416 475.878 99.2715H483.126C482.358 101.832 480.886 103.944 478.71 105.608C476.534 107.24 473.862 108.056 470.694 108.056C468.134 108.056 465.83 107.496 463.782 106.376C461.766 105.224 460.182 103.608 459.03 101.528C457.91 99.4475 457.35 97.0475 457.35 94.3275C457.35 91.5755 457.91 89.1595 459.03 87.0795C460.15 84.9995 461.718 83.3995 463.734 82.2795C465.75 81.1595 468.07 80.5995 470.694 80.5995C473.222 80.5995 475.478 81.1435 477.462 82.2315C479.478 83.3195 481.03 84.8715 482.118 86.8875C483.238 88.8715 483.798 91.1595 483.798 93.7515ZM476.838 91.8315C476.806 90.1035 476.182 88.7275 474.966 87.7035C473.75 86.6475 472.262 86.1195 470.502 86.1195C468.838 86.1195 467.43 86.6315 466.278 87.6555C465.158 88.6475 464.47 90.0395 464.214 91.8315H476.838ZM495.423 85.1595C496.287 83.7515 497.407 82.6475 498.783 81.8475C500.191 81.0475 501.791 80.6475 503.583 80.6475V87.7035H501.807C499.695 87.7035 498.095 88.1995 497.007 89.1915C495.951 90.1835 495.423 91.9115 495.423 94.3755V107.624H488.703V81.0315H495.423V85.1595ZM511.085 107.96C509.869 107.96 508.861 107.592 508.061 106.856C507.293 106.088 506.909 105.144 506.909 104.024C506.909 102.904 507.293 101.976 508.061 101.24C508.861 100.472 509.869 100.088 511.085 100.088C512.269 100.088 513.245 100.472 514.013 101.24C514.781 101.976 515.165 102.904 515.165 104.024C515.165 105.144 514.781 106.088 514.013 106.856C513.245 107.592 512.269 107.96 511.085 107.96ZM39.84 134.12V167.624H33.12V145.832L24.144 167.624H19.056L10.032 145.832V167.624H3.312V134.12H10.944L21.6 159.032L32.256 134.12H39.84ZM58.2919 168.056C55.7319 168.056 53.4279 167.496 51.3799 166.376C49.3319 165.224 47.7159 163.608 46.5319 161.528C45.3799 159.448 44.8039 157.048 44.8039 154.328C44.8039 151.608 45.3959 149.208 46.5799 147.128C47.7959 145.048 49.4439 143.448 51.5239 142.328C53.6039 141.176 55.9239 140.6 58.4839 140.6C61.0439 140.6 63.3639 141.176 65.4439 142.328C67.5239 143.448 69.1559 145.048 70.3399 147.128C71.5559 149.208 72.1639 151.608 72.1639 154.328C72.1639 157.048 71.5399 159.448 70.2919 161.528C69.0759 163.608 67.4119 165.224 65.2999 166.376C63.2199 167.496 60.8839 168.056 58.2919 168.056ZM58.2919 162.2C59.5079 162.2 60.6439 161.912 61.6999 161.336C62.7879 160.728 63.6519 159.832 64.2919 158.648C64.9319 157.464 65.2519 156.024 65.2519 154.328C65.2519 151.8 64.5799 149.864 63.2359 148.52C61.9239 147.144 60.3079 146.456 58.3879 146.456C56.4679 146.456 54.8519 147.144 53.5399 148.52C52.2599 149.864 51.6199 151.8 51.6199 154.328C51.6199 156.856 52.2439 158.808 53.4919 160.184C54.7719 161.528 56.3719 162.2 58.2919 162.2ZM80.5013 137.864C79.3173 137.864 78.3253 137.496 77.5253 136.76C76.7573 135.992 76.3733 135.048 76.3733 133.928C76.3733 132.808 76.7573 131.88 77.5253 131.144C78.3253 130.376 79.3173 129.992 80.5013 129.992C81.6853 129.992 82.6613 130.376 83.4293 131.144C84.2293 131.88 84.6293 132.808 84.6293 133.928C84.6293 135.048 84.2293 135.992 83.4293 136.76C82.6613 137.496 81.6853 137.864 80.5013 137.864ZM83.8133 141.032V167.624H77.0933V141.032H83.8133ZM105.189 140.648C108.357 140.648 110.917 141.656 112.869 143.672C114.821 145.656 115.797 148.44 115.797 152.024V167.624H109.077V152.936C109.077 150.824 108.549 149.208 107.493 148.088C106.437 146.936 104.997 146.36 103.173 146.36C101.317 146.36 99.8446 146.936 98.7566 148.088C97.7006 149.208 97.1726 150.824 97.1726 152.936V167.624H90.4526V141.032H97.1726V144.344C98.0686 143.192 99.2046 142.296 100.581 141.656C101.989 140.984 103.525 140.648 105.189 140.648ZM132.363 168.056C130.187 168.056 128.235 167.672 126.507 166.904C124.779 166.104 123.403 165.032 122.379 163.688C121.387 162.344 120.843 160.856 120.747 159.224H127.515C127.643 160.248 128.139 161.096 129.003 161.768C129.899 162.44 131.003 162.776 132.315 162.776C133.595 162.776 134.587 162.52 135.291 162.008C136.027 161.496 136.395 160.84 136.395 160.04C136.395 159.176 135.947 158.536 135.051 158.12C134.187 157.672 132.795 157.192 130.875 156.68C128.891 156.2 127.259 155.704 125.979 155.192C124.731 154.68 123.643 153.896 122.715 152.84C121.819 151.784 121.371 150.36 121.371 148.568C121.371 147.096 121.787 145.752 122.619 144.536C123.483 143.32 124.699 142.36 126.267 141.656C127.867 140.952 129.739 140.6 131.883 140.6C135.051 140.6 137.579 141.4 139.467 143C141.355 144.568 142.395 146.696 142.587 149.384H136.155C136.059 148.328 135.611 147.496 134.811 146.888C134.043 146.248 133.003 145.928 131.691 145.928C130.475 145.928 129.531 146.152 128.859 146.6C128.219 147.048 127.899 147.672 127.899 148.472C127.899 149.368 128.347 150.056 129.243 150.536C130.139 150.984 131.531 151.448 133.419 151.928C135.339 152.408 136.923 152.904 138.171 153.416C139.419 153.928 140.491 154.728 141.387 155.816C142.315 156.872 142.795 158.28 142.827 160.04C142.827 161.576 142.395 162.952 141.531 164.168C140.699 165.384 139.483 166.344 137.883 167.048C136.315 167.72 134.475 168.056 132.363 168.056ZM158.053 154.232C158.053 151.544 158.581 149.16 159.637 147.08C160.725 145 162.197 143.4 164.053 142.28C165.909 141.16 167.973 140.6 170.245 140.6C171.973 140.6 173.621 140.984 175.189 141.752C176.757 142.488 178.005 143.48 178.933 144.728V132.104H185.749V167.624H178.933V163.688C178.101 165 176.933 166.056 175.429 166.856C173.925 167.656 172.181 168.056 170.197 168.056C167.957 168.056 165.909 167.48 164.053 166.328C162.197 165.176 160.725 163.56 159.637 161.48C158.581 159.368 158.053 156.952 158.053 154.232ZM178.981 154.328C178.981 152.696 178.661 151.304 178.021 150.152C177.381 148.968 176.517 148.072 175.429 147.464C174.341 146.824 173.173 146.504 171.925 146.504C170.677 146.504 169.525 146.808 168.469 147.416C167.413 148.024 166.549 148.92 165.877 150.104C165.237 151.256 164.917 152.632 164.917 154.232C164.917 155.832 165.237 157.24 165.877 158.456C166.549 159.64 167.413 160.552 168.469 161.192C169.557 161.832 170.709 162.152 171.925 162.152C173.173 162.152 174.341 161.848 175.429 161.24C176.517 160.6 177.381 159.704 178.021 158.552C178.661 157.368 178.981 155.96 178.981 154.328ZM217.032 153.752C217.032 154.712 216.968 155.576 216.84 156.344H197.4C197.56 158.264 198.232 159.768 199.416 160.856C200.6 161.944 202.056 162.488 203.784 162.488C206.28 162.488 208.056 161.416 209.112 159.272H216.36C215.592 161.832 214.12 163.944 211.944 165.608C209.768 167.24 207.096 168.056 203.928 168.056C201.368 168.056 199.064 167.496 197.016 166.376C195 165.224 193.416 163.608 192.264 161.528C191.144 159.448 190.584 157.048 190.584 154.328C190.584 151.576 191.144 149.16 192.264 147.08C193.384 145 194.952 143.4 196.968 142.28C198.984 141.16 201.304 140.6 203.928 140.6C206.456 140.6 208.712 141.144 210.696 142.232C212.712 143.32 214.264 144.872 215.352 146.888C216.472 148.872 217.032 151.16 217.032 153.752ZM210.072 151.832C210.04 150.104 209.416 148.728 208.2 147.704C206.984 146.648 205.496 146.12 203.736 146.12C202.072 146.12 200.664 146.632 199.512 147.656C198.392 148.648 197.704 150.04 197.448 151.832H210.072ZM231.646 154.328C231.646 151.576 232.207 149.176 233.327 147.128C234.447 145.048 235.999 143.448 237.983 142.328C239.967 141.176 242.239 140.6 244.799 140.6C248.095 140.6 250.815 141.432 252.959 143.096C255.135 144.728 256.591 147.032 257.327 150.008H250.079C249.695 148.856 249.039 147.96 248.111 147.32C247.215 146.648 246.095 146.312 244.751 146.312C242.831 146.312 241.311 147.016 240.191 148.424C239.071 149.8 238.511 151.768 238.511 154.328C238.511 156.856 239.071 158.824 240.191 160.232C241.311 161.608 242.831 162.296 244.751 162.296C247.471 162.296 249.247 161.08 250.079 158.648H257.327C256.591 161.528 255.135 163.816 252.959 165.512C250.783 167.208 248.063 168.056 244.799 168.056C242.239 168.056 239.967 167.496 237.983 166.376C235.999 165.224 234.447 163.624 233.327 161.576C232.207 159.496 231.646 157.08 231.646 154.328ZM274.058 168.056C271.498 168.056 269.194 167.496 267.146 166.376C265.098 165.224 263.482 163.608 262.298 161.528C261.146 159.448 260.57 157.048 260.57 154.328C260.57 151.608 261.162 149.208 262.346 147.128C263.562 145.048 265.21 143.448 267.29 142.328C269.37 141.176 271.69 140.6 274.25 140.6C276.81 140.6 279.13 141.176 281.21 142.328C283.29 143.448 284.922 145.048 286.106 147.128C287.322 149.208 287.93 151.608 287.93 154.328C287.93 157.048 287.306 159.448 286.057 161.528C284.842 163.608 283.178 165.224 281.066 166.376C278.986 167.496 276.65 168.056 274.058 168.056ZM274.058 162.2C275.274 162.2 276.41 161.912 277.466 161.336C278.554 160.728 279.418 159.832 280.058 158.648C280.698 157.464 281.018 156.024 281.018 154.328C281.018 151.8 280.346 149.864 279.002 148.52C277.69 147.144 276.074 146.456 274.154 146.456C272.234 146.456 270.618 147.144 269.306 148.52C268.026 149.864 267.386 151.8 267.386 154.328C267.386 156.856 268.01 158.808 269.258 160.184C270.538 161.528 272.138 162.2 274.058 162.2ZM307.595 140.648C310.763 140.648 313.323 141.656 315.275 143.672C317.227 145.656 318.203 148.44 318.203 152.024V167.624H311.483V152.936C311.483 150.824 310.955 149.208 309.899 148.088C308.843 146.936 307.403 146.36 305.579 146.36C303.723 146.36 302.251 146.936 301.163 148.088C300.107 149.208 299.579 150.824 299.579 152.936V167.624H292.859V141.032H299.579V144.344C300.475 143.192 301.611 142.296 302.987 141.656C304.395 140.984 305.931 140.648 307.595 140.648ZM336.785 146.552H332.129V167.624H325.313V146.552H322.289V141.032H325.313V139.688C325.313 136.424 326.241 134.024 328.097 132.488C329.953 130.952 332.753 130.232 336.497 130.328V135.992C334.865 135.96 333.729 136.232 333.089 136.808C332.449 137.384 332.129 138.424 332.129 139.928V141.032H336.785V146.552ZM347.86 132.104V167.624H341.14V132.104H347.86ZM357.908 137.864C356.724 137.864 355.732 137.496 354.932 136.76C354.164 135.992 353.78 135.048 353.78 133.928C353.78 132.808 354.164 131.88 354.932 131.144C355.732 130.376 356.724 129.992 357.908 129.992C359.092 129.992 360.068 130.376 360.836 131.144C361.636 131.88 362.036 132.808 362.036 133.928C362.036 135.048 361.636 135.992 360.836 136.76C360.068 137.496 359.092 137.864 357.908 137.864ZM361.22 141.032V167.624H354.5V141.032H361.22ZM375.683 146.552V159.416C375.683 160.312 375.891 160.968 376.307 161.384C376.755 161.768 377.491 161.96 378.515 161.96H381.635V167.624H377.411C371.747 167.624 368.915 164.872 368.915 159.368V146.552H365.747V141.032H368.915V134.456H375.683V141.032H381.635V146.552H375.683ZM396.644 168.056C394.468 168.056 392.516 167.672 390.788 166.904C389.06 166.104 387.684 165.032 386.66 163.688C385.668 162.344 385.124 160.856 385.028 159.224H391.796C391.924 160.248 392.42 161.096 393.284 161.768C394.18 162.44 395.284 162.776 396.596 162.776C397.876 162.776 398.868 162.52 399.572 162.008C400.308 161.496 400.676 160.84 400.676 160.04C400.676 159.176 400.228 158.536 399.332 158.12C398.468 157.672 397.076 157.192 395.156 156.68C393.172 156.2 391.54 155.704 390.26 155.192C389.012 154.68 387.924 153.896 386.996 152.84C386.1 151.784 385.652 150.36 385.652 148.568C385.652 147.096 386.068 145.752 386.9 144.536C387.764 143.32 388.98 142.36 390.548 141.656C392.148 140.952 394.02 140.6 396.164 140.6C399.332 140.6 401.86 141.4 403.748 143C405.636 144.568 406.676 146.696 406.868 149.384H400.436C400.34 148.328 399.892 147.496 399.092 146.888C398.324 146.248 397.284 145.928 395.972 145.928C394.756 145.928 393.812 146.152 393.14 146.6C392.5 147.048 392.18 147.672 392.18 148.472C392.18 149.368 392.628 150.056 393.524 150.536C394.42 150.984 395.812 151.448 397.7 151.928C399.62 152.408 401.204 152.904 402.452 153.416C403.7 153.928 404.772 154.728 405.668 155.816C406.596 156.872 407.076 158.28 407.108 160.04C407.108 161.576 406.676 162.952 405.812 164.168C404.98 165.384 403.764 166.344 402.164 167.048C400.596 167.72 398.756 168.056 396.644 168.056ZM415.601 167.96C414.385 167.96 413.377 167.592 412.577 166.856C411.809 166.088 411.425 165.144 411.425 164.024C411.425 162.904 411.809 161.976 412.577 161.24C413.377 160.472 414.385 160.088 415.601 160.088C416.785 160.088 417.761 160.472 418.529 161.24C419.297 161.976 419.681 162.904 419.681 164.024C419.681 165.144 419.297 166.088 418.529 166.856C417.761 167.592 416.785 167.96 415.601 167.96Z" fill="#2F3640"/>
</svg>
