<svg width="153" height="22" viewBox="0 0 153 22" fill="none" xmlns="http://www.w3.org/2000/svg">
<path d="M0 20.7395V0.852308H3.97744V17.1598H11.3925V20.7395H0Z" fill="#318CE7"/>
<path d="M19.1006 21.1088C17.7558 21.1088 16.5247 20.7679 15.4073 20.0861C14.3087 19.3853 13.428 18.4572 12.7651 17.3019C12.1211 16.1276 11.7991 14.8302 11.7991 13.4097C11.7991 12.349 11.9885 11.3546 12.3673 10.4266C12.7462 9.47956 13.267 8.65567 13.9299 7.95488C14.5928 7.23515 15.3599 6.67642 16.2311 6.27867C17.1213 5.86199 18.0778 5.65365 19.1006 5.65365C20.3885 5.65365 21.3923 5.89987 22.1121 6.39231C22.8318 6.86582 23.3905 7.50031 23.7883 8.2958V5.96616H27.5953V20.7395H23.8735V18.3246C23.4758 19.158 22.9076 19.8304 22.1689 20.3418C21.4492 20.8531 20.4264 21.1088 19.1006 21.1088ZM19.7256 17.6428C20.5779 17.6428 21.3071 17.4534 21.9132 17.0746C22.5382 16.6768 23.0212 16.156 23.3621 15.512C23.7031 14.868 23.8735 14.1673 23.8735 13.4097C23.8735 12.6331 23.7031 11.9228 23.3621 11.2789C23.0212 10.6349 22.5382 10.1141 21.9132 9.71632C21.3071 9.31857 20.5779 9.1197 19.7256 9.1197C18.9112 9.1197 18.1915 9.31857 17.5664 9.71632C16.9603 10.0951 16.4868 10.6065 16.1459 11.2505C15.805 11.8944 15.6345 12.6047 15.6345 13.3812C15.6345 14.1199 15.805 14.8207 16.1459 15.4836C16.4868 16.1276 16.9603 16.6484 17.5664 17.0462C18.1915 17.4439 18.9112 17.6428 19.7256 17.6428Z" fill="#318CE7"/>
<path d="M34.8192 20.7395V0.852308H41.5241C43.6832 0.852308 45.331 1.33528 46.4675 2.30123C47.6039 3.26718 48.1721 4.5267 48.1721 6.0798C48.1721 7.02681 47.9353 7.85071 47.4618 8.55149C47.0072 9.23334 46.1739 9.80155 44.9617 10.2561C46.5906 10.6349 47.7175 11.2599 48.3425 12.1312C48.9676 12.9835 49.2801 14.0252 49.2801 15.2563C49.2801 16.9231 48.6456 18.2583 47.3766 19.2622C46.1076 20.2471 44.3935 20.7395 42.2343 20.7395H34.8192ZM38.7967 9.06288H41.1547C42.2343 9.06288 43.0014 8.87348 43.456 8.49467C43.9105 8.09693 44.1378 7.50031 44.1378 6.70483C44.1378 6.02298 43.9105 5.47371 43.456 5.05703C43.0014 4.6214 42.2343 4.40359 41.1547 4.40359H38.7967V9.06288ZM38.7967 17.1598H41.865C42.9446 17.1598 43.778 16.9609 44.3651 16.5632C44.9522 16.1465 45.2458 15.5025 45.2458 14.6313C45.2458 13.9116 44.9522 13.3434 44.3651 12.9267C43.778 12.51 42.9446 12.3017 41.865 12.3017H38.7967V17.1598Z" fill="#318CE7"/>
<path d="M58.0116 21.1088C56.4964 21.1088 55.1421 20.7584 53.9489 20.0577C52.7557 19.3569 51.8181 18.4288 51.1363 17.2734C50.4734 16.0992 50.1419 14.8018 50.1419 13.3812C50.1419 11.9607 50.4734 10.6633 51.1363 9.48903C51.8181 8.31474 52.7557 7.3772 53.9489 6.67641C55.1421 5.97563 56.4964 5.62524 58.0116 5.62524C59.5457 5.62524 60.9 5.97563 62.0742 6.67641C63.2675 7.3772 64.1955 8.31474 64.8585 9.48903C65.5403 10.6633 65.8812 11.9607 65.8812 13.3812C65.8812 14.8018 65.5403 16.0992 64.8585 17.2734C64.1955 18.4288 63.2675 19.3569 62.0742 20.0577C60.9 20.7584 59.5457 21.1088 58.0116 21.1088ZM58.0116 17.6144C58.826 17.6144 59.5363 17.425 60.1423 17.0462C60.7484 16.6484 61.2125 16.1276 61.5344 15.4836C61.8754 14.8396 62.0458 14.1388 62.0458 13.3812C62.0458 12.6047 61.8754 11.8944 61.5344 11.2505C61.2125 10.6065 60.7484 10.0951 60.1423 9.71632C59.5363 9.31857 58.826 9.1197 58.0116 9.1197C57.1971 9.1197 56.4869 9.31857 55.8808 9.71632C55.2747 10.0951 54.8012 10.6065 54.4603 11.2505C54.1383 11.8944 53.9773 12.6047 53.9773 13.3812C53.9773 14.1388 54.1383 14.8396 54.4603 15.4836C54.8012 16.1276 55.2747 16.6484 55.8808 17.0462C56.4869 17.425 57.1971 17.6144 58.0116 17.6144Z" fill="#318CE7"/>
<path d="M73.0619 21.0804C72.0013 21.0804 71.0448 20.8342 70.1925 20.3418C69.3402 19.8493 68.6678 19.1485 68.1754 18.2394C67.6829 17.3113 67.4367 16.2317 67.4367 15.0006V5.96616H71.2721V14.0631C71.2721 15.3321 71.5278 16.2601 72.0391 16.8473C72.5505 17.4344 73.2797 17.728 74.2267 17.728C75.0412 17.728 75.7514 17.4344 76.3575 16.8473C76.9825 16.2601 77.2951 15.3321 77.2951 14.0631V5.96616H81.1304V20.7395H77.4087V18.5235C77.0488 19.3758 76.5185 20.0198 75.8177 20.4554C75.1359 20.8721 74.2173 21.0804 73.0619 21.0804Z" fill="#318CE7"/>
<path d="M88.4501 21.1088C85.9689 21.1088 83.9234 20.2471 82.3135 18.5235L84.8988 16.1654C85.9784 17.3776 87.1337 17.9837 88.3648 17.9837C89.0278 17.9837 89.5297 17.8417 89.8706 17.5576C90.2305 17.2545 90.4104 16.8852 90.4104 16.4496C90.4104 16.1844 90.3441 15.9571 90.2115 15.7677C90.0979 15.5783 89.8422 15.3984 89.4444 15.2279C89.0656 15.0574 88.488 14.887 87.7114 14.7165C86.3856 14.3945 85.4007 13.9968 84.7567 13.5233C84.1128 13.0498 83.6866 12.5195 83.4783 11.9323C83.2699 11.3452 83.1658 10.7391 83.1658 10.1141C83.1658 8.82613 83.6487 7.75601 84.6147 6.9037C85.5996 6.03245 86.9538 5.59682 88.6774 5.59682C89.8706 5.59682 90.8934 5.77676 91.7457 6.13662C92.598 6.49648 93.4029 7.16886 94.1605 8.15375L91.3763 10.2845C91.0165 9.71632 90.6093 9.3091 90.1547 9.06288C89.7191 8.81666 89.255 8.69355 88.7626 8.69355C88.2323 8.69355 87.7872 8.79772 87.4273 9.00606C87.0864 9.2144 86.9159 9.54585 86.9159 10.0004C86.9159 10.2466 87.0296 10.4929 87.2569 10.7391C87.4841 10.9664 88.0334 11.1937 88.9046 11.4209C90.3441 11.7808 91.4426 12.207 92.2002 12.6994C92.9578 13.1729 93.4787 13.7127 93.7628 14.3188C94.0469 14.9249 94.189 15.5972 94.189 16.3359C94.189 17.245 93.9333 18.0595 93.4219 18.7792C92.9294 19.4989 92.2476 20.0671 91.3763 20.4838C90.524 20.9005 89.5486 21.1088 88.4501 21.1088Z" fill="#318CE7"/>
<path d="M100.741 21.1088C98.2597 21.1088 96.2142 20.2471 94.6042 18.5235L97.1896 16.1654C98.2692 17.3776 99.4245 17.9837 100.656 17.9837C101.319 17.9837 101.82 17.8417 102.161 17.5576C102.521 17.2545 102.701 16.8852 102.701 16.4496C102.701 16.1844 102.635 15.9571 102.502 15.7677C102.389 15.5783 102.133 15.3984 101.735 15.2279C101.356 15.0574 100.779 14.887 100.002 14.7165C98.6764 14.3945 97.6915 13.9968 97.0475 13.5233C96.4035 13.0498 95.9774 12.5195 95.7691 11.9323C95.5607 11.3452 95.4565 10.7391 95.4565 10.1141C95.4565 8.82613 95.9395 7.75601 96.9055 6.9037C97.8904 6.03245 99.2446 5.59682 100.968 5.59682C102.161 5.59682 103.184 5.77676 104.036 6.13662C104.889 6.49648 105.694 7.16886 106.451 8.15375L103.667 10.2845C103.307 9.71632 102.9 9.3091 102.445 9.06288C102.01 8.81666 101.546 8.69355 101.053 8.69355C100.523 8.69355 100.078 8.79772 99.7181 9.00606C99.3772 9.2144 99.2067 9.54585 99.2067 10.0004C99.2067 10.2466 99.3203 10.4929 99.5476 10.7391C99.7749 10.9664 100.324 11.1937 101.195 11.4209C102.635 11.7808 103.733 12.207 104.491 12.6994C105.249 13.1729 105.769 13.7127 106.054 14.3188C106.338 14.9249 106.48 15.5972 106.48 16.3359C106.48 17.245 106.224 18.0595 105.713 18.7792C105.22 19.4989 104.538 20.0671 103.667 20.4838C102.815 20.9005 101.839 21.1088 100.741 21.1088Z" fill="#318CE7"/>
<path d="M126.619 20.7395V0H130.454V20.7395H126.619Z" fill="#318CE7"/>
<path d="M139.797 21.1088C138.282 21.1088 136.946 20.7584 135.791 20.0577C134.636 19.3569 133.736 18.4288 133.092 17.2734C132.467 16.0992 132.154 14.8018 132.154 13.3812C132.154 11.9607 132.486 10.6633 133.149 9.48903C133.812 8.2958 134.711 7.34879 135.848 6.64801C137.003 5.94722 138.319 5.59682 139.797 5.59682C141.274 5.59682 142.572 5.94722 143.689 6.64801C144.825 7.34879 145.706 8.2958 146.331 9.48903C146.975 10.6633 147.297 11.9607 147.297 13.3812C147.297 13.5896 147.288 13.8074 147.269 14.0347C147.25 14.262 147.221 14.4987 147.183 14.7449H136.132C136.34 15.6162 136.757 16.3264 137.382 16.8757C138.026 17.425 138.831 17.6996 139.797 17.6996C140.63 17.6996 141.35 17.5102 141.956 17.1314C142.581 16.7526 143.064 16.2791 143.405 15.7109L146.388 17.9553C145.801 18.8834 144.92 19.641 143.746 20.2281C142.572 20.8153 141.255 21.1088 139.797 21.1088ZM139.74 8.89242C138.831 8.89242 138.054 9.16705 137.41 9.71632C136.766 10.2656 136.34 10.9853 136.132 11.8755H143.433C143.225 11.0611 142.789 10.3603 142.126 9.77314C141.482 9.18599 140.687 8.89242 139.74 8.89242Z" fill="#318CE7"/>
<path d="M150.471 21.1088C149.733 21.1088 149.117 20.8626 148.625 20.3702C148.151 19.8777 147.915 19.2906 147.915 18.6087C147.915 17.9458 148.151 17.3682 148.625 16.8757C149.117 16.3833 149.733 16.137 150.471 16.137C151.21 16.137 151.816 16.3833 152.29 16.8757C152.763 17.3682 153 17.9458 153 18.6087C153 19.2906 152.763 19.8777 152.29 20.3702C151.816 20.8626 151.21 21.1088 150.471 21.1088Z" fill="#318CE7"/>
<path d="M115.714 6.58257C122.177 6.06689 126.766 12.1756 123.598 17.3581C120.365 22.6458 111.771 22.261 109.134 16.7193C107.006 12.2525 110.327 7.01359 115.714 6.58257ZM115.785 8.82234C115.524 8.6838 114.211 9.16613 113.904 9.3098C112.717 9.8691 111.629 10.98 111.2 12.1268C111.106 12.3757 110.896 13.0428 110.901 13.2711C110.907 13.4404 111.87 13.8432 112.086 13.9843C112.123 14.0074 112.228 13.9946 112.174 14.0972C112.117 14.2075 111.157 14.6001 110.975 14.7181C111.296 16.4422 112.634 17.9405 114.447 18.587C114.677 18.6691 115.416 18.9 115.617 18.8795C115.819 18.859 116.251 18.0098 116.416 17.8045C116.441 17.7712 116.427 17.6762 116.541 17.725C116.694 17.7891 117.061 18.6665 117.251 18.8154C117.441 18.9642 118.078 18.7615 118.319 18.6896C119.399 18.3715 120.45 17.6788 121.109 16.8475C121.45 16.4216 122.106 15.321 122.052 14.8053C122.038 14.6693 121.138 14.2871 120.927 14.1485C120.89 14.1254 120.785 14.1383 120.839 14.0356C120.93 13.8586 122.058 13.5405 122.118 13.266C122.271 12.5527 121.325 11.0185 120.802 10.4746C120.155 9.79727 118.328 8.69663 117.319 8.80182C117.166 8.81721 116.742 9.6305 116.592 9.81779C116.566 9.85115 116.581 9.94607 116.467 9.89733C116.322 9.83575 115.893 8.88135 115.777 8.81977L115.785 8.82234Z" fill="#328CE6"/>
<path d="M116.012 13.2967C115.055 13.9869 116.564 15.1773 117.22 14.323L117.788 14.8361C116.39 15.5339 114.907 16.0958 113.456 16.6962C114.018 15.3544 114.663 14.01 115.373 12.7195L116.012 13.2967Z" fill="#7ED6A7"/>
<path d="M115.373 12.7196C116.68 12.227 118.05 11.5317 119.371 11.1033C119.459 11.075 119.533 11.0314 119.635 11.0519C119.655 11.1443 119.612 11.2084 119.581 11.2905C119.104 12.4605 118.311 13.6663 117.791 14.8362L117.223 14.3231C117.76 13.6252 116.771 12.7529 116.015 13.2968L115.376 12.7196H115.373Z" fill="#FEE27F"/>
</svg>
